<svg id="visual" viewBox="0 0 900 600" width="900" height="600" xmlns="http://www.w3.org/2000/svg" xmlns:xlink="http://www.w3.org/1999/xlink" version="1.1"><rect x="0" y="0" width="900" height="600" fill="#002db3"></rect><path d="M0 512L21.5 503.7C43 495.3 86 478.7 128.8 467.7C171.7 456.7 214.3 451.3 257.2 457C300 462.7 343 479.3 385.8 489.8C428.7 500.3 471.3 504.7 514.2 506C557 507.3 600 505.7 642.8 502.8C685.7 500 728.3 496 771.2 485.3C814 474.7 857 457.3 878.5 448.7L900 440L900 601L878.5 601C857 601 814 601 771.2 601C728.3 601 685.7 601 642.8 601C600 601 557 601 514.2 601C471.3 601 428.7 601 385.8 601C343 601 300 601 257.2 601C214.3 601 171.7 601 128.8 601C86 601 43 601 21.5 601L0 601Z" fill="#0066FF" stroke-linecap="round" stroke-linejoin="miter"></path></svg>